<?xml version="1.0" standalone="no"?><!DOCTYPE svg PUBLIC "-//W3C//DTD SVG 1.1//EN" "http://www.w3.org/Graphics/SVG/1.1/DTD/svg11.dtd"><svg t="1626250587956" class="icon" viewBox="0 0 1024 1024" version="1.1" xmlns="http://www.w3.org/2000/svg" p-id="20990" xmlns:xlink="http://www.w3.org/1999/xlink" width="200" height="200"><defs><style type="text/css"></style></defs><path d="M773.21221 947.359482 250.786767 947.359482c-60.112076 0-108.841917-48.729841-108.841917-108.839871L141.944849 577.304332c0-44.604894 26.89658-82.839707 65.301262-99.649558l0-96.264461c0-168.30931 136.441509-304.750819 304.750819-304.750819 141.478222 0 260.09169 96.546893 294.424636 227.250724l-0.422625 0.135076c1.118474 3.852748 1.906419 7.847735 1.906419 12.06171 0 24.044626-19.49296 43.535539-43.535539 43.535539-19.005866 0-34.996049-12.253068-40.936341-29.227672l-0.011256 0.002047c-22.984481-95.573729-108.797915-166.685323-211.425294-166.685323-120.220059 0-217.678718 97.459682-217.678718 217.678718l0 87.072101 18.235316 0 0 0.002047 460.659705 0c60.112076 0 108.841917 48.729841 108.841917 108.839871l0 261.21528C882.054127 898.629641 833.325309 947.359482 773.21221 947.359482zM794.981003 599.073124c0-24.044626-19.490913-43.537586-43.535539-43.537586L272.550443 555.535539c-24.042579 0-43.535539 19.49296-43.535539 43.537586l0 217.676671c0 24.044626 19.49296 43.537586 43.535539 43.537586l478.893998 0c24.044626 0 43.535539-19.49296 43.535539-43.537586L794.97998 599.073124z" p-id="20991"></path></svg>